<svg width="40" height="40" viewBox="0 0 40 40" fill="none" xmlns="http://www.w3.org/2000/svg">
    <path d="M20.036 0.149963C9.01223 0.149963 0.0730591 9.23988 0.0730591 20.4538C0.0730591 29.4247 5.79306 37.0355 13.725 39.7203C14.7226 39.9082 15.0889 39.2798 15.0889 38.7435C15.0889 38.2594 15.0704 36.6599 15.0618 34.9633C9.5081 36.1916 8.3362 32.5677 8.3362 32.5677C7.4281 30.2208 6.11967 29.5968 6.11967 29.5968C4.30843 28.3366 6.2562 28.3625 6.2562 28.3625C8.26083 28.5054 9.31636 30.4549 9.31636 30.4549C11.0969 33.5589 13.9864 32.6615 15.1256 32.1427C15.3048 30.8308 15.8221 29.9344 16.3931 29.4277C11.959 28.9143 7.29785 27.1733 7.29785 19.3933C7.29785 17.1765 8.07769 15.3653 9.35471 13.9434C9.14744 13.4316 8.46413 11.3669 9.5481 8.57012C9.5481 8.57012 11.2245 8.02442 15.0393 10.6514C16.6317 10.2015 18.3395 9.97589 20.036 9.96815C21.7326 9.97589 23.4417 10.2015 25.037 10.6514C28.8473 8.02442 30.5213 8.57012 30.5213 8.57012C31.6079 11.3669 30.9243 13.4316 30.717 13.9434C31.997 15.3653 32.7716 17.1765 32.7716 19.3933C32.7716 27.1918 28.1015 28.9089 23.6562 29.4115C24.3722 30.0416 25.0102 31.2773 25.0102 33.1716C25.0102 35.888 24.9871 38.0745 24.9871 38.7435C24.9871 39.2839 25.3464 39.917 26.3583 39.7176C34.2859 37.0298 39.9987 29.4216 39.9987 20.4538C39.9987 9.23988 31.0608 0.149963 20.036 0.149963" fill="black"/>
    <path d="M7.63405 29.3019C7.59008 29.4031 7.43405 29.4331 7.2919 29.3638C7.1471 29.2976 7.06578 29.16 7.11272 29.0588C7.1557 28.9549 7.31206 28.9264 7.45652 28.9953C7.60165 29.0619 7.68429 29.2007 7.63405 29.3019" fill="black"/>
    <path d="M8.44264 30.2192C8.34744 30.3089 8.16132 30.2672 8.03504 30.1253C7.90446 29.9838 7.88 29.7945 7.97653 29.7034C8.07471 29.6136 8.2552 29.6556 8.38611 29.7972C8.51669 29.9404 8.54215 30.1284 8.44264 30.2192" fill="black"/>
    <path d="M9.22976 31.3886C9.10744 31.475 8.90744 31.3939 8.78381 31.2134C8.66149 31.0328 8.66149 30.8163 8.78645 30.7295C8.91042 30.6428 9.10744 30.7208 9.23273 30.9C9.35471 31.0833 9.35471 31.3001 9.22976 31.3886" fill="black"/>
    <path d="M10.3081 32.5183C10.1987 32.641 9.96561 32.608 9.79504 32.4406C9.62049 32.2769 9.5719 32.0445 9.68165 31.9218C9.79239 31.7987 10.0268 31.8334 10.1987 31.9995C10.3719 32.1629 10.4248 32.3969 10.3081 32.5183" fill="black"/>
    <path d="M11.7957 33.1743C11.7474 33.3333 11.523 33.4056 11.2969 33.338C11.0711 33.2684 10.9233 33.0821 10.9689 32.9214C11.0159 32.7614 11.2413 32.6861 11.4691 32.7584C11.6946 32.8276 11.8427 33.0125 11.7957 33.1743" fill="black"/>
    <path d="M13.4294 33.296C13.435 33.4634 13.2433 33.6023 13.0059 33.605C12.7673 33.6107 12.5742 33.4752 12.5716 33.3104C12.5716 33.1413 12.759 33.0038 12.9977 32.9998C13.235 32.995 13.4294 33.1295 13.4294 33.296" fill="black"/>
    <path d="M14.9498 33.0327C14.9782 33.1961 14.8132 33.3639 14.5775 33.4083C14.3458 33.4516 14.1312 33.3508 14.1018 33.1887C14.0731 33.0213 14.241 32.8535 14.4724 32.8101C14.7084 32.7684 14.9197 32.8666 14.9498 33.0327" fill="black"/>
</svg>
